<?xml version="1.0" encoding="utf-8"?>
<!-- Generator: Adobe Illustrator 27.9.3, SVG Export Plug-In . SVG Version: 9.03 Build 53313)  -->
<svg version="1.1" id="_x32_" xmlns="http://www.w3.org/2000/svg" xmlns:xlink="http://www.w3.org/1999/xlink" x="0px" y="0px"
	 viewBox="0 0 512 512" style="enable-background:new 0 0 512 512;" xml:space="preserve">
<style type="text/css">
	.st0{fill:#009919;}
</style>
<g>
	<path class="st0" d="M106,348.8c12.8-115.6,86.3-211.2,185.8-257.2C268.4,53.4,236.6,22.4,199.9,0C62.4,65.5-2.4,227.4,54.8,370.9
		c14.1,35.3,34.4,66.1,59,92.1C104.5,425.9,101.7,387.3,106,348.8z"/>
	<path class="st0" d="M439.5,93.3c-152.1-6.9-285.6,105.4-302.6,258.9c-6.2,55.9,3.9,109.9,26.4,157.2c2.1,0.3,4.2,0.6,6.4,0.9
		C322,527.2,459.3,417.4,476.3,265C483.2,202.8,469,143.2,439.5,93.3z M291,345.3c-48.6,75.2-93.7,132.5-100.9,127.9
		c-7.1-4.6,26.5-69.3,75.1-144.5c48.6-75.2,93.7-132.5,100.9-127.9C373.2,205.4,339.6,270.1,291,345.3z"/>
</g>
</svg>
