<?xml version="1.0" encoding="UTF-8"?>
<svg id="_レイヤー_2" data-name="レイヤー 2" xmlns="http://www.w3.org/2000/svg" viewBox="0 0 512 344.36">
  <defs>
    <style>
      .cls-1 {
        fill: #fff;
        stroke-width: 0px;
      }
    </style>
  </defs>
  <g id="_2" data-name="2">
    <path class="cls-1" d="m481.48,166.45c-15.89-15.9-37.03-26.62-60.51-29.59-2.05-36.76-17.64-70-42.06-94.39C352.72,16.25,316.38,0,276.39,0c-37.46,0-71.72,14.26-97.43,37.61-22.11,20.06-37.95,46.94-44.36,77.28-6.21-1.03-12.57-1.62-19.07-1.62-31.86,0-60.83,12.95-81.7,33.84C12.96,167.98,0,196.95,0,228.81c0,31.87,12.95,60.84,33.84,81.7,20.87,20.89,49.84,33.84,81.7,33.84h292.25c28.73,0,54.87-11.68,73.69-30.52,18.84-18.82,30.53-44.95,30.52-73.69,0-28.74-11.68-54.88-30.52-73.7Zm-19.22,128.16c-13.98,13.96-33.15,22.56-54.46,22.56H115.54c-24.44,0-46.44-9.87-62.48-25.88-16.01-16.03-25.87-38.03-25.88-62.47,0-24.44,9.87-46.45,25.88-62.47,16.03-16.01,38.04-25.88,62.48-25.88,9.12,0,17.88,1.38,26.14,3.94l15.85,4.9,1.69-16.5c3.04-29.65,17.09-56.03,38.02-75.05,20.95-19,48.64-30.55,79.16-30.55,32.57,0,61.94,13.16,83.3,34.51,21.34,21.36,34.5,50.73,34.51,83.3,0,1.15-.05,2.49-.11,4.06l-.52,14.62,14.44-.56c21.22.07,40.3,8.65,54.24,22.56,13.96,13.99,22.56,33.15,22.56,54.47,0,21.31-8.6,40.48-22.56,54.46Z"/>
  </g>
</svg>