<?xml version="1.0" encoding="UTF-8"?>
<svg id="_レイヤー_2" data-name="レイヤー 2" xmlns="http://www.w3.org/2000/svg" viewBox="0 0 473.85 512">
  <defs>
    <style>
      .cls-1 {
        fill: #fffef9;
        stroke-width: 0px;
      }
    </style>
  </defs>
  <g id="_2" data-name="2">
    <g>
      <path class="cls-1" d="m436.65,118.43c-18.34-18.31-42.48-30.89-69.27-35.19-8.42-21.8-22.44-40.77-40.36-55.03C304.45,10.23,275.51-.41,244.4.01c-31.44.41-60.34,12.05-82.55,30.98-16.66,14.2-29.7,32.52-37.55,53.41-34.64.62-66.03,15.22-88.42,38.25C13.32,145.79-.47,177.79.01,212.67c.45,34.88,15.11,66.5,38.28,89.03,23.14,22.56,55.14,36.36,90.02,35.88,47.98-.64,173.44-2.33,220.62-2.97,34.88-.45,66.5-15.11,89.02-38.28,22.56-23.14,36.38-55.12,35.89-90.02-.45-34.31-14.66-65.47-37.19-87.87Zm-34.47,143.06c-13.75,14.12-32.66,22.91-53.91,23.2-47.2.62-172.66,2.31-220.64,2.95-21.25.28-40.38-8-54.53-21.73-14.09-13.77-22.88-32.66-23.19-53.92-.27-21.25,8.02-40.38,21.73-54.53,13.78-14.08,32.67-22.88,53.92-23.17,4.28-.06,8.66.33,13.27,1.06l24.03,3.86,4.45-23.92c3.42-18.36,13.14-34.56,26.89-46.28,13.77-11.72,31.34-18.81,50.86-19.08,19.31-.25,36.88,6.23,50.89,17.36,13.98,11.12,24.17,26.81,28.3,44.77l4.39,19.11,19.61.27c20.77.27,39.42,8.7,53.16,22.36,13.7,13.7,22.22,32.28,22.52,53.19.27,21.26-8.02,40.37-21.75,54.51Z"/>
      <path class="cls-1" d="m130.32,364.04s-19.62,18.34-24.27,24c-1.77,2.16-3.08,4.73-3.81,7.59-2.62,10.44,3.7,21.03,14.14,23.67,10.44,2.61,21.03-3.7,23.67-14.14.72-2.88.77-5.75.25-8.48-1.4-7.19-9.98-32.64-9.98-32.64Z"/>
      <path class="cls-1" d="m107.11,456.14s-19.62,18.36-24.27,24.02c-1.75,2.17-3.08,4.72-3.8,7.59-2.64,10.44,3.7,21.03,14.14,23.66,10.44,2.64,21.03-3.69,23.66-14.14.72-2.86.78-5.75.25-8.47-1.41-7.19-9.98-32.66-9.98-32.66Z"/>
      <path class="cls-1" d="m246.92,362.47s-19.62,18.36-24.27,24.02c-1.75,2.16-3.08,4.72-3.8,7.58-2.64,10.45,3.69,21.05,14.12,23.69,10.44,2.61,21.05-3.72,23.67-14.14.72-2.89.77-5.75.23-8.5-1.39-7.17-9.97-32.64-9.97-32.64Z"/>
      <path class="cls-1" d="m223.7,454.57s-19.62,18.36-24.25,24.02c-1.77,2.17-3.09,4.72-3.81,7.58-2.64,10.45,3.69,21.05,14.14,23.67,10.44,2.62,21.03-3.7,23.66-14.14.73-2.88.77-5.75.25-8.47-1.39-7.19-9.98-32.66-9.98-32.66Z"/>
      <path class="cls-1" d="m363.51,360.9s-19.62,18.36-24.27,24.02c-1.77,2.16-3.09,4.72-3.81,7.58-2.62,10.44,3.72,21.05,14.14,23.67,10.45,2.62,21.05-3.7,23.67-14.14.73-2.88.77-5.75.25-8.48-1.41-7.17-9.98-32.64-9.98-32.64Z"/>
      <path class="cls-1" d="m340.29,453.01s-19.61,18.34-24.25,24.02c-1.77,2.16-3.08,4.7-3.81,7.58-2.62,10.44,3.7,21.03,14.14,23.67,10.44,2.62,21.03-3.7,23.67-14.14.72-2.88.77-5.75.23-8.48-1.41-7.19-9.98-32.64-9.98-32.64Z"/>
    </g>
  </g>
</svg>