<?xml version="1.0" encoding="utf-8"?>
<!-- Generator: Adobe Illustrator 27.9.3, SVG Export Plug-In . SVG Version: 9.03 Build 53313)  -->
<svg version="1.1" id="_x32_" xmlns="http://www.w3.org/2000/svg" xmlns:xlink="http://www.w3.org/1999/xlink" x="0px" y="0px"
	 viewBox="0 0 512 512" style="enable-background:new 0 0 512 512;" xml:space="preserve">
<style type="text/css">
	.st0{fill:#FFFFFF;}
</style>
<g>
	<path class="st0" d="M359.9,269.3c0.6-2,1.1-4.1,1.1-6.4c0-4.1-1.2-8-3.2-11.3c8.9-16.4,14-35.1,14-54.9c0-17.5-4-34-10.9-48.8
		l18,4.9l9.5-35.3l-44.9-12.1l20-74L247.1,0l-20,74l-44.9-12.1l-9.5,35.3l17.2,4.6c-30,20.9-49.6,55.6-49.6,94.9
		c0,20,5.2,38.8,14.2,55.3c-1.9,3.2-3,6.9-3,10.9c0,2.1,0.4,4.2,1,6.1c-24.7,25.8-40.1,60.7-40,99.3c0,79.3,64.3,143.7,143.7,143.7
		c79.3,0,143.7-64.3,143.7-143.7C399.7,329.9,384.5,295.1,359.9,269.3z M191.1,131.9c9.1-9.1,20.2-16.3,32.5-20.9l103.6,27.9
		c12.9,15.8,20.6,35.9,20.6,57.9c0,16.1-4.2,31.1-11.5,44.3H175.7c-7.3-13.1-11.5-28.2-11.5-44.3
		C164.2,171.4,174.5,148.5,191.1,131.9z M340.7,453c-21.7,21.7-51.6,35.1-84.7,35.1s-62.9-13.4-84.6-35.1s-35.1-51.6-35.1-84.6
		c0-32.7,13.3-62.1,34.5-83.7c0.8,0.1,1.7,0.3,2.6,0.3h99.8v68.2c0,7.5,6.1,13.6,13.6,13.6h30.7c7.5,0,13.6-6.1,13.6-13.6V285h8
		c0.8,0,1.5-0.1,2.2-0.2c21.3,21.6,34.5,51,34.5,83.7C375.7,401.4,362.3,431.3,340.7,453z"/>
	<circle class="st0" cx="214.3" cy="171.2" r="13"/>
	<circle class="st0" cx="293.1" cy="171.2" r="13"/>
	<path class="st0" d="M217.9,214.1c0-0.2,0-0.3,0-0.5s-0.2-0.3-0.2-0.4L217.9,214.1z"/>
	<path class="st0" d="M217.9,213.6c1.4,4.2,5.5,6.9,9.9,6.2l31.4-4.8c0,0,7.5-15-7.5-21.9l-28.1,10.1
		C219.3,204.8,216.9,209.3,217.9,213.6z"/>
</g>
</svg>
