<?xml version="1.0" encoding="UTF-8"?>
<svg id="_レイヤー_2" data-name="レイヤー 2" xmlns="http://www.w3.org/2000/svg" viewBox="0 0 490.07 570">
  <defs>
    <style>
      .cls-1 {
        fill-rule: evenodd;
      }

      .cls-1, .cls-2 {
        fill: #fff;
        stroke-width: 0px;
      }
    </style>
  </defs>
  <g id="contents">
    <g>
      <g>
        <polygon class="cls-2" points="374.87 406.34 365.84 390.69 342.04 404.42 342.04 376.95 323.97 376.95 323.97 404.42 300.18 390.69 291.14 406.34 314.94 420.07 291.14 433.81 300.18 449.46 323.97 435.73 323.97 463.2 342.04 463.2 342.04 435.72 365.84 449.46 374.87 433.81 351.08 420.07 374.87 406.34"/>
        <polygon class="cls-2" points="189.89 410.39 198.92 394.74 175.13 381 198.92 367.26 189.89 351.61 166.09 365.35 166.09 337.87 148.02 337.87 148.02 365.35 124.23 351.61 115.19 367.26 138.99 381 115.19 394.74 124.23 410.39 148.02 396.65 148.02 424.12 166.09 424.12 166.09 396.65 189.89 410.39"/>
        <polygon class="cls-2" points="264.58 497.49 240.79 511.23 240.79 483.75 222.71 483.75 222.71 511.23 198.92 497.49 189.89 513.14 213.68 526.88 189.89 540.61 198.92 556.26 222.71 542.53 222.71 570 240.79 570 240.79 542.53 264.58 556.26 273.61 540.61 249.82 526.88 273.61 513.14 264.58 497.49"/>
      </g>
      <path class="cls-1" d="m0,213.07v2.37c0,54.93,44.51,99.43,99.43,99.43h291.2c54.92,0,99.43-44.51,99.43-99.43v-2.37c0-50.93-38.26-92.89-87.62-98.73-.89-44.99-37.64-81.2-82.84-81.2-19.09,0-36.67,6.46-50.69,17.31C249.32,20.1,215.2,0,176.38,0c-60.79,0-110.09,49.29-110.09,110.09,0,3.06.13,6.09.38,9.08C27.85,132.71,0,169.63,0,213.07Z"/>
    </g>
  </g>
</svg>