<?xml version="1.0" encoding="utf-8"?>
<!-- Generator: Adobe Illustrator 27.9.3, SVG Export Plug-In . SVG Version: 9.03 Build 53313)  -->
<svg version="1.1" id="_x32_" xmlns="http://www.w3.org/2000/svg" xmlns:xlink="http://www.w3.org/1999/xlink" x="0px" y="0px"
	 viewBox="0 0 512 512" style="enable-background:new 0 0 512 512;" xml:space="preserve">
<style type="text/css">
	.st0{fill:#4B4B4B;}
	.st1{fill:#FFFFFF;}
</style>
<g>
	<ellipse class="st0" cx="-2022.2" cy="-5.2" rx="137.3" ry="137.3"/>
	<rect x="-2037.1" y="-261.2" class="st0" width="29.7" height="81.6"/>
	<rect x="-2037.1" y="169.2" class="st0" width="29.7" height="81.6"/>
	<path class="st0" d="M-2099.3-168.5l-35.3-61.2c-1.7-2.9-14.4-4.7-14.4-4.7c-3.4,0-6.5,1.8-8.2,4.7c0,0-4.8,11.9-3.1,14.8
		l35.4,61.3c1.7,2.9,4.8,4.7,8.2,4.7h6c3.3,0,6.4-1.7,8.1-4.6l3.3-5.5C-2097.7-161.8-2097.6-165.5-2099.3-168.5z"/>
	
		<rect x="-1929.6" y="140.4" transform="matrix(0.866 -0.5001 0.5001 0.866 -347.2658 -933.2605)" class="st0" width="29.7" height="81.6"/>
	<polygon class="st0" points="-2251.3,-120.4 -2180.7,-79.6 -2165.8,-105.3 -2236.5,-146.1 	"/>
	<polygon class="st0" points="-1878.6,94.8 -1807.9,135.6 -1793.1,109.9 -1863.8,69.1 	"/>
	<rect x="-2278.2" y="-20.1" class="st0" width="81.6" height="29.7"/>
	<rect x="-1847.8" y="-20.1" class="st0" width="81.6" height="29.7"/>
	<polygon class="st0" points="-2251.3,109.9 -2236.5,135.6 -2165.8,94.8 -2180.7,69.1 	"/>
	<polygon class="st0" points="-1793.1,-120.4 -1807.9,-146.1 -1878.6,-105.3 -1863.8,-79.6 	"/>
	
		<rect x="-2170.6" y="166.2" transform="matrix(0.5 -0.866 0.866 0.5 -1221.7174 -1753.9191)" class="st0" width="81.6" height="29.7"/>
	<polygon class="st0" points="-1947.9,-163.7 -1922.2,-148.8 -1881.4,-219.5 -1907.1,-234.3 	"/>
</g>
<ellipse class="st0" cx="-2022.2" cy="-220.4" rx="14.8" ry="39.2"/>
<g>
	<g>
		<ellipse class="st0" cx="-878.9" cy="116.6" rx="114.2" ry="114.2"/>
	</g>
	<ellipse class="st0" cx="-679.9" cy="116.6" rx="45.1" ry="21.9"/>
	<ellipse transform="matrix(0.866 -0.5 0.5 0.866 -103.2672 -351.0107)" class="st0" cx="-706.6" cy="17.2" rx="45.1" ry="21.9"/>
	<ellipse transform="matrix(0.5 -0.866 0.866 0.5 -341.5726 -702.8157)" class="st0" cx="-779.5" cy="-55.6" rx="45.1" ry="21.9"/>
	<ellipse class="st0" cx="-878.9" cy="-82.3" rx="21.9" ry="45.1"/>
	<ellipse transform="matrix(0.866 -0.5 0.5 0.866 -103.242 -496.6665)" class="st0" cx="-978.4" cy="-55.7" rx="21.9" ry="45.1"/>
	<ellipse transform="matrix(0.5 -0.866 0.866 0.5 -540.3804 -901.6813)" class="st0" cx="-1051.1" cy="17.1" rx="21.9" ry="45.1"/>
	<ellipse class="st0" cx="-1077.8" cy="116.6" rx="45.1" ry="21.9"/>
	<ellipse transform="matrix(0.866 -0.5 0.5 0.866 -248.8612 -496.6086)" class="st0" cx="-1051.1" cy="216.1" rx="45.1" ry="21.9"/>
	<ellipse transform="matrix(0.5 -0.866 0.866 0.5 -739.3961 -702.86)" class="st0" cx="-978.4" cy="288.9" rx="45.1" ry="21.9"/>
	<ellipse class="st0" cx="-878.9" cy="315.6" rx="21.9" ry="45.1"/>
	<ellipse transform="matrix(0.866 -0.5 0.5 0.866 -248.8632 -351.0127)" class="st0" cx="-779.4" cy="288.9" rx="21.9" ry="45.1"/>
	<ellipse transform="matrix(0.5 -0.866 0.866 0.5 -540.4745 -503.8445)" class="st0" cx="-706.6" cy="216.1" rx="21.9" ry="45.1"/>
</g>
<g>
	<g>
		<ellipse class="st1" cx="255.2" cy="252.2" rx="114.2" ry="114.2"/>
	</g>
	<ellipse class="st1" cx="461.5" cy="252.2" rx="45.1" ry="21.9"/>
	<ellipse transform="matrix(0.7071 -0.7071 0.7071 0.7071 40.3933 313.508)" class="st1" cx="398.6" cy="108" rx="45.1" ry="21.9"/>
	<ellipse class="st1" cx="252.2" cy="50.5" rx="21.9" ry="45.1"/>
	
		<ellipse transform="matrix(0.7071 -0.7071 0.7071 0.7071 -48.5292 109.5645)" class="st1" cx="108" cy="113.4" rx="21.9" ry="45.1"/>
	<ellipse class="st1" cx="50.5" cy="259.8" rx="45.1" ry="21.9"/>
	
		<ellipse transform="matrix(0.7071 -0.7071 0.7071 0.7071 -252.4727 198.4871)" class="st1" cx="113.4" cy="404" rx="45.1" ry="21.9"/>
	<ellipse class="st1" cx="259.8" cy="461.5" rx="21.9" ry="45.1"/>
	
		<ellipse transform="matrix(0.7071 -0.7071 0.7071 0.7071 -163.5501 402.4306)" class="st1" cx="404" cy="398.6" rx="21.9" ry="45.1"/>
</g>
</svg>
