<?xml version="1.0" encoding="utf-8"?>
<!-- Generator: Adobe Illustrator 27.9.3, SVG Export Plug-In . SVG Version: 9.03 Build 53313)  -->
<svg version="1.1" id="_レイヤー_2" xmlns="http://www.w3.org/2000/svg" xmlns:xlink="http://www.w3.org/1999/xlink" x="0px"
	 y="0px" viewBox="0 0 256 256" style="enable-background:new 0 0 256 256;" xml:space="preserve">
<style type="text/css">
	.st0{fill:#FFFFFF;}
</style>
<g id="contents">
	<g>
		<path class="st0" d="M154,167.7v-143c0-13.2-10.7-23.9-23.9-23.9h-2.7c-13.2,0-23.9,10.7-23.9,23.9v143
			c-13.6,8.6-22.1,23.7-22.1,40c0,26.1,21.2,47.3,47.3,47.3s47.3-21.2,47.3-47.3C176,191.4,167.5,176.2,154,167.7L154,167.7z
			 M128.8,246.1c-21.3,0-38.5-17.2-38.5-38.5c0-15.4,9-28.6,22.1-34.8V24.7c0-8.3,6.8-15.1,15.1-15.1h2.7c8.3,0,15.1,6.8,15.1,15.1
			v148.2c13,6.2,22.1,19.4,22.1,34.8C167.2,228.9,150,246.1,128.8,246.1L128.8,246.1z"/>
		<path class="st0" d="M128.8,238c-16.7,0-30.3-13.6-30.3-30.3c0-11.7,6.8-22.4,17.4-27.4l4.7-2.2V80.1c0-3.8,3.1-6.9,6.9-6.9h2.7
			c3.8,0,6.9,3.1,6.9,6.9V178l4.7,2.2c10.6,5,17.4,15.8,17.4,27.4C159.1,224.4,145.5,238,128.8,238L128.8,238z"/>
	</g>
</g>
</svg>
