<?xml version="1.0" encoding="UTF-8"?>
<svg id="_レイヤー_2" data-name="レイヤー 2" xmlns="http://www.w3.org/2000/svg" viewBox="0 0 512 512">
  <defs>
    <style>
      .cls-1 {
        fill: #069;
        stroke-width: 0px;
      }
    </style>
  </defs>
  <g id="_10" data-name="10">
    <g>
      <path class="cls-1" d="m175.6,409.7h160.8c38.6,0,70.1-31.5,70.1-70.1v-167.2c0-38.7-31.5-70.1-70.1-70.1h-160.8c-38.7,0-70.1,31.5-70.1,70.1v167.2c0,38.7,31.4,70.1,70.1,70.1Zm182.3-277.8c12.3,0,22.2,9.9,22.2,22.2s-9.9,22.2-22.2,22.2-22.2-10-22.2-22.2c.1-12.3,10-22.2,22.2-22.2Zm-101.9,25.1c54.6,0,99.1,44.4,99.1,99s-44.4,99.1-99.1,99.1-99-44.4-99-99.1,44.4-99,99-99Z"/>
      <path class="cls-1" d="m256,324.2c37.6,0,68.2-30.6,68.2-68.2s-30.6-68.2-68.2-68.2-68.2,30.6-68.2,68.2,30.6,68.2,68.2,68.2Z"/>
      <path class="cls-1" d="m403.3,0H108.7C48.7,0,0,48.7,0,108.7v294.6c0,60,48.7,108.7,108.7,108.7h294.6c60.1,0,108.7-48.7,108.7-108.7V108.7c0-60-48.7-108.7-108.7-108.7ZM66.9,172.4c0-60,48.7-108.7,108.7-108.7h160.8c60,0,108.7,48.7,108.7,108.7v167.2c0,60-48.7,108.7-108.7,108.7h-160.8c-60.1,0-108.7-48.7-108.7-108.7v-167.2h0Z"/>
    </g>
  </g>
</svg>