<?xml version="1.0" encoding="utf-8"?>
<!-- Generator: Adobe Illustrator 27.9.3, SVG Export Plug-In . SVG Version: 9.03 Build 53313)  -->
<svg version="1.1" id="_レイヤー_2" xmlns="http://www.w3.org/2000/svg" xmlns:xlink="http://www.w3.org/1999/xlink" x="0px"
	 y="0px" viewBox="0 0 512 512" style="enable-background:new 0 0 512 512;" xml:space="preserve">
<style type="text/css">
	.st0{fill:#006699;}
</style>
<g id="_10">
	<path class="st0" d="M510.6,97.9c0.2-0.2,0.2-0.4,0.4-0.4c-15.1,6.7-30.9,11.4-47.4,14.5c-4.1,0.6-8.1,1.2-12.2,1.6
		c16.9-10.4,30.5-25.2,39.5-43.2c2.4-4.7,4.7-9.4,6.3-14.3c-0.2,0-0.2,0.2-0.4,0.2c0-0.2,0.2-0.2,0.2-0.4
		c-20.4,12-42.8,20.8-66.6,25.4c-19.1-20.4-46.4-33.2-76.5-33.2c-58,0-104.8,47-104.8,104.8c0,7.5,0.8,14.7,2.4,21.8
		c0.2,0.6,0.2,1.4,0.2,2c-76.1-3.9-144.7-36.2-195.4-86.7c-7.1-7.1-14-14.7-20.4-22.6l0,0l-0.2-0.2c-9,15.5-14.3,33.6-14.3,52.7
		c0,29.9,12.6,56.6,32.6,75.7c4.3,4.1,8.8,7.9,13.6,11.4c-17.1-0.6-33-5.3-47-13v1.2c0,42.3,25.2,78.4,61.3,95.1
		c7.1,3.5,14.5,6.1,22.4,7.9c-8.6,2.2-17.7,3.7-27.1,3.7c-5.5,0-10.8-0.6-16.1-1.4c-1.2-0.2-2.2-0.4-3.5-0.6v0.2h-0.4
		c11.6,36.4,42.8,64.3,81.2,71.3c5.3,1,10.8,1.6,16.5,1.8c-35.8,28.1-81,44.8-130.1,44.8c-7.1,0-14-0.6-21-1.2
		c-1.2-0.2-2.6-0.2-3.9-0.6c0.2,0.2,0.4,0.2,0.6,0.4H0c46.4,29.7,101.6,47,160.8,47c94.5,0,167.7-38.3,218.2-93.6
		c0.4-0.4,0.8-1,1.2-1.4c5.5-6.1,10.6-12.2,15.5-18.7c1.2-1.6,2.4-3.1,3.5-4.7c4.1-5.7,7.9-11.4,11.8-17.3c1.4-2.4,3.1-4.7,4.5-7.1
		c3.3-5.5,6.3-11.2,9.4-16.9c1.4-2.6,2.6-5.3,4.1-7.9c2.9-6.1,5.7-12.2,8.1-18.5c0.8-2,1.6-4.1,2.4-6.3c2.9-7.5,5.3-15.3,7.7-23
		c0.2-0.6,0.4-1.2,0.6-1.8c7.7-27.1,11.8-54.6,11.8-81.2c0-4.5,0-9.2-0.2-13.6c16.3-11.8,30.7-25.9,43.2-41.7
		c3.3-4.1,6.5-8.1,9.4-12.4C510.8,97.7,510.6,97.7,510.6,97.9L510.6,97.9z"/>
</g>
</svg>
