<?xml version="1.0" encoding="UTF-8"?>
<svg id="_レイヤー_2" data-name="レイヤー 2" xmlns="http://www.w3.org/2000/svg" viewBox="0 0 251.5 204.1">
  <defs>
    <style>
      .cls-1 {
        fill: #069;
        stroke-width: 0px;
      }
    </style>
  </defs>
  <g id="_10" data-name="10">
    <path class="cls-1" d="m250.8,24.4c.1-.1.1-.2.2-.2-7.4,3.3-15.2,5.6-23.3,7.1-2,.3-4,.6-6,.8,8.3-5.1,15-12.4,19.4-21.2,1.2-2.3,2.3-4.6,3.1-7-.1,0-.1.1-.2.1,0-.1.1-.1.1-.2-10,5.9-21,10.2-32.7,12.5C202,6.3,188.6,0,173.8,0c-28.5,0-51.5,23.1-51.5,51.5,0,3.7.4,7.2,1.2,10.7.1.3.1.7.1,1-37.4-1.9-71.1-17.8-96-42.6-3.5-3.5-6.9-7.2-10-11.1h0l-.1-.1c-4.4,7.6-7,16.5-7,25.9,0,14.7,6.2,27.8,16,37.2,2.1,2,4.3,3.9,6.7,5.6-8.4-.3-16.2-2.6-23.1-6.4v.6c0,20.8,12.4,38.5,30.1,46.7,3.5,1.7,7.1,3,11,3.9-4.2,1.1-8.7,1.8-13.3,1.8-2.7,0-5.3-.3-7.9-.7-.6-.1-1.1-.2-1.7-.3v.1h-.2c5.7,17.9,21,31.6,39.9,35,2.6.5,5.3.8,8.1.9-17.6,13.8-39.8,22-63.9,22-3.5,0-6.9-.3-10.3-.6-.6-.1-1.3-.1-1.9-.3.1.1.2.1.3.2h-.3c22.8,14.6,49.9,23.1,79,23.1,46.4,0,82.4-18.8,107.2-46,.2-.2.4-.5.6-.7,2.7-3,5.2-6,7.6-9.2.6-.8,1.2-1.5,1.7-2.3,2-2.8,3.9-5.6,5.8-8.5.7-1.2,1.5-2.3,2.2-3.5,1.6-2.7,3.1-5.5,4.6-8.3.7-1.3,1.3-2.6,2-3.9,1.4-3,2.8-6,4-9.1.4-1,.8-2,1.2-3.1,1.4-3.7,2.6-7.5,3.8-11.3.1-.3.2-.6.3-.9,3.8-13.3,5.8-26.8,5.8-39.9,0-2.2,0-4.5-.1-6.7,8-5.8,15.1-12.7,21.2-20.5,1.6-2,3.2-4,4.6-6.1-.6.2-.7.2-.7.3Z"/>
  </g>
</svg>