<?xml version="1.0" encoding="utf-8"?>
<!-- Generator: Adobe Illustrator 27.9.3, SVG Export Plug-In . SVG Version: 9.03 Build 53313)  -->
<svg version="1.1" id="_x32_" xmlns="http://www.w3.org/2000/svg" xmlns:xlink="http://www.w3.org/1999/xlink" x="0px" y="0px"
	 viewBox="0 0 512 512" style="enable-background:new 0 0 512 512;" xml:space="preserve">
<style type="text/css">
	.st0{fill:#006699;}
</style>
<g>
	<path class="st0" d="M510.7,110.4c-2.1-10.8-6.9-20.9-13.9-29.5c-1.4-1.8-2.9-3.4-4.5-5c-12.5-12.5-29.8-19.7-47.5-19.7H67.2
		c-18,0-34.8,7-47.5,19.7c-1.6,1.6-3.1,3.2-4.6,5.1c-7,8.5-11.7,18.7-13.8,29.4c-0.9,4.2-1.3,8.6-1.3,13v265.1
		c0,9.2,1.9,18.2,5.6,26.7c3.2,7.6,8.1,14.8,14.1,20.8c1.5,1.5,3,2.9,4.6,4.3c12,10,27.3,15.5,42.9,15.5h377.5
		c15.7,0,31-5.5,43-15.6c1.6-1.3,3.1-2.7,4.6-4.1c5.8-5.8,10.4-12.5,13.8-19.9l0.4-1c3.6-8.4,5.5-17.3,5.5-26.6V123.4
		C512,119.1,511.6,114.6,510.7,110.4z M34.8,99.1c1-1.4,2.2-2.8,3.7-4.4c7.7-7.7,17.9-11.9,28.7-11.9h377.5
		c10.9,0,21.1,4.2,28.7,11.9c1.3,1.3,2.6,2.8,3.7,4.3l2.9,3.9L278.5,278.5c-6.2,5.4-14.2,8.4-22.5,8.4c-8.2,0-16.2-3-22.5-8.4
		L32.2,102.9L34.8,99.1z M26.8,390.9c-0.1-0.7-0.1-1.5-0.1-2.3V128.9L183,265.3l-154.8,135L26.8,390.9z M464.9,423.8
		c-6.1,3.5-13,5.3-20.1,5.3H67.2c-7.1,0-14.1-1.9-20.1-5.3l-6.3-3.7l159.9-139.4l17.5,15.2c10.5,9.1,23.9,14.2,37.8,14.2
		c13.9,0,27.3-5,37.8-14.2l17.5-15.3l159.9,139.4L464.9,423.8z M485.4,388.6c0,0.8,0,1.6-0.1,2.3l-1.4,9.5L329,265.4L485.4,129
		V388.6z"/>
</g>
</svg>
