<?xml version="1.0" encoding="utf-8"?>
<!-- Generator: Adobe Illustrator 27.9.3, SVG Export Plug-In . SVG Version: 9.03 Build 53313)  -->
<svg version="1.1" id="_x32_" xmlns="http://www.w3.org/2000/svg" xmlns:xlink="http://www.w3.org/1999/xlink" x="0px" y="0px"
	 viewBox="0 0 512 512" style="enable-background:new 0 0 512 512;" xml:space="preserve">
<style type="text/css">
	.st0{fill:#006699;}
</style>
<g>
	<path class="st0" d="M486.5,397.9c-2.2-6-5.9-11.9-11.1-16.9c-5.6-5.3-13-10.9-21.6-17c-12.9-9.1-28.2-18.8-42-26.9
		c-6.9-4-13.3-7.6-18.9-10.5c-5.7-2.9-10.2-5.1-14.6-6.5c-3.7-1.2-7.5-1.7-11.2-1.7c-11.1,0.1-21,4.5-29.3,10.9
		c-8.2,6.5-15.1,15.2-19,25.6c-0.5,1.3-1,2.4-1.4,3.2c-11.9-7.7-41.3-29.5-84.5-80.8c-29.7-35.2-46.8-61.7-56.4-79.1
		c-4.4-7.9-7.1-13.8-8.9-17.9c0.9-0.3,2-0.6,3.4-0.8c12-2.3,22.5-8.3,30.6-16.4c4-4.1,7.5-8.7,10-13.9c2.5-5.2,4.1-11.1,4.1-17.3
		c0-1.7-0.1-3.4-0.4-5.1c-0.5-3.1-1.2-6.2-2.2-9.8c-3.6-12.5-10.4-31.1-18.1-49.4c-3.8-9.2-7.9-18.2-11.8-26.2
		c-3.9-8.1-7.7-15.1-11.4-20.7c-5.4-8-12.9-13.5-20.4-16.6C143.8,1,136.2,0,129.3,0c-6.4,0-12.2,0.9-17.2,2.1
		c-2.5,0.6-4.8,1.3-6.9,2.1c-2.1,0.8-4,1.6-6.1,2.8l0,0c0,0,0,0,0,0l-0.5-0.9l0.1,1.1c-0.8,0.4-2.4,1.4-4.4,2.6
		c-9,5.4-26.6,16.9-42.3,36c-15.7,19-29.6,46.1-29.5,80.9c0,7.4,0.6,15.2,2,23.2c14.6,87.8,55.9,160.3,103,216.2
		C174.6,422,239.1,475,323.1,504.3c15.5,5.4,30.3,7.7,44.1,7.7c33.1,0,59.6-13.4,78-26.9c9.2-6.8,16.5-13.7,21.9-19.3
		c2.7-2.8,4.8-5.3,6.5-7.2c1.6-1.9,2.9-3.4,3.1-3.7c1.9-2.3,3.3-4.5,4.7-7.1c4.1-7.8,8.1-18.9,8.2-32.2
		C489.5,409.9,488.7,403.9,486.5,397.9z M52.4,126.6c0-15.3,3.4-28.2,8.6-39.5c7.7-16.8,19.8-29.8,30.6-38.8
		c5.4-4.5,10.5-8,14.5-10.6c2-1.3,3.7-2.3,5.1-3.1c1.4-0.8,2.3-1.3,3.3-1.9c0.2-0.1,2.5-1.1,5.2-1.7c2.8-0.6,6.2-1.1,9.6-1.1
		c3.9,0,7.7,0.6,10.6,1.8c2.9,1.2,5,2.8,6.9,5.6c2.7,4,6.8,11.6,10.9,20.3c6.3,13.2,13.1,29.4,18.4,43.6c2.7,7.1,5,13.6,6.6,19
		c1.7,5.2,2.8,9.6,2.9,10.7l0,0.8c0,1-0.3,2.5-1.1,4.3c-1.3,2.7-4,6-7.5,8.6c-3.5,2.6-7.7,4.6-11.7,5.3c-5.3,1-9.9,2.5-13.8,4.5
		c-5.9,3-10.4,7.3-12.9,11.9c-2.5,4.5-3.1,8.7-3,11.2l0.1,1.7l0.5,2.5c0.7,2.5,12.1,41.7,73.8,114.8s98.3,91.1,100.7,92.1l2.5,0.9
		c1,0.3,2.7,0.6,5.1,0.6c4.1,0.1,10.3-1.4,15.6-5.7c5.4-4.2,9.8-10.6,13-19.3c1.7-4.7,5.3-9.3,9.4-12.5c4.1-3.2,8.5-4.6,10.9-4.6
		l1.9,0.3c0.7,0.2,2.9,1.1,5.6,2.4c9.7,4.6,26.5,14.3,42.4,24.5c8,5.1,15.8,10.3,22.4,15.1c6.6,4.8,12.2,9.2,15.3,12.2
		c1.8,1.8,2.9,3.5,3.7,5.6c0.8,2.1,1.2,4.5,1.2,7.3c0,4.3-1.1,9.2-2.5,13.2c-0.7,2-1.5,3.7-2.2,5l-0.8,1.4l-0.2,0.3
		c-0.9,1-1.7,2.1-3.1,3.8c-4.8,5.6-14.9,16.6-29.2,25.9c-14.4,9.4-32.5,17-54.3,17c-10.4,0-21.8-1.7-34.2-6.1
		c-77.8-27.1-138.1-76.4-182.6-129.2C105.9,294,67.5,226.2,54,144.9C52.9,138.5,52.4,132.4,52.4,126.6z"/>
</g>
</svg>
